<svg xmlns="http://www.w3.org/2000/svg" width="559" height="559" fill="none" xmlns:v="https://vecta.io/nano"><g filter="url(#A)"><rect x="29" y="25" width="501" height="501" rx="125" stroke="#384b98" stroke-width="50" shape-rendering="crispEdges"/></g><path d="M301.6 551V196.4c0-28 8.2-50.6 24.6-67.8s40-25.8 70.8-25.8c12 0 23.6 1.6 34.8 4.8s20.6 8.2 28.2 15l-14.4 31.8c-6-5.2-13-9-21-11.4-8-2.8-16.6-4.2-25.8-4.2-18 0-31.8 5-41.4 15S343 178.6 343 198.2v48l1.2 19.8v285h-42.6zm-56.4-279.6V236h195v35.4h-195z" fill="#384b98"/><defs><filter id="A" x="0" y="0" width="559" height="559" filterUnits="userSpaceOnUse" color-interpolation-filters="sRGB"><feFlood flood-opacity="0" result="A"/><feColorMatrix in="SourceAlpha" values="0 0 0 0 0 0 0 0 0 0 0 0 0 0 0 0 0 0 127 0" result="B"/><feOffset dy="4"/><feGaussianBlur stdDeviation="2"/><feComposite in2="B" operator="out"/><feColorMatrix values="0 0 0 0 0 0 0 0 0 0 0 0 0 0 0 0 0 0 0.25 0"/><feBlend in2="A"/><feBlend in="SourceGraphic"/></filter></defs></svg>